# xmcd CD database file
#
# Track frame offsets:
#	150
#	24486
#	27972
#	47608
#	67108
#	87596
#	110770
#	129741
#	148203
#	166210
#	187748
#
# Disc length: 2722 seconds
#
# Revision: 1
# Processed by: cddbd v1.4PL0 Copyright (c) Steve Scherf et al.
# Submitted via: CDex 1.50Beta7
#
DISCID=9b0aa00b
DTITLE=Artist CD Text in Japanese only - Title CD Text in Japanese only
DYEAR=1900
DGENRE=Jazz
TTITLE0=Track 1 [CD Text in Japanese only)
TTITLE1=Track 2 [CD Text in Japanese only)
TTITLE2=Track 3 [CD Text in Japanese only)
TTITLE3=Track 4 [CD Text in Japanese only)
TTITLE4=Track 5 [CD Text in Japanese only)
TTITLE5=Track 6 [CD Text in Japanese only)
TTITLE6=Track 7 [CD Text in Japanese only)
TTITLE7=Track 8 [CD Text in Japanese only)
TTITLE8=Track 9 [CD Text in Japanese only)
TTITLE9=Track 10 [CD Text in Japanese only)
TTITLE10=Track 11 [CD Text in Japanese only)
EXTD=
EXTT0=
EXTT1=
EXTT2=
EXTT3=
EXTT4=
EXTT5=
EXTT6=
EXTT7=
EXTT8=
EXTT9=
EXTT10=
PLAYORDER=
